<svg id="Capa_1" data-name="Capa 1" xmlns="http://www.w3.org/2000/svg" viewBox="0 0 359 358.14"><defs><style>.cls-1{fill:#fff;}.cls-2{fill:#13463d;}.cls-3{fill:#ffad1d;}.cls-4{fill:#d14633;}</style></defs><title>5</title><circle class="cls-1" cx="286.75" cy="285.89" r="38.78"/><circle class="cls-1" cx="72.25" cy="285.89" r="38.78"/><circle class="cls-1" cx="179.5" cy="104.81" r="68.94"/><polygon class="cls-2" points="308.91 241.72 258.49 241.59 195.07 177.33 245.23 177.2 308.91 241.72"/><polygon class="cls-3" points="50.09 242.06 114.03 177.27 164.19 177.4 100.76 241.67 50.09 242.06"/><path class="cls-4" d="M1159.87-2444.74a72.33,72.33,0,0,1-72.25-72.25,72.33,72.33,0,0,1,72.25-72.25,72.33,72.33,0,0,1,72.25,72.25A72.33,72.33,0,0,1,1159.87-2444.74Zm0-109.46a37.26,37.26,0,0,0-37.22,37.21,37.27,37.27,0,0,0,37.22,37.22,37.26,37.26,0,0,0,37.21-37.22A37.25,37.25,0,0,0,1159.87-2554.2Z" transform="translate(-1087.62 2802.88)"/><path class="cls-2" d="M1374.37-2444.74a72.33,72.33,0,0,1-72.25-72.25,72.33,72.33,0,0,1,72.25-72.25,72.34,72.34,0,0,1,72.25,72.25A72.34,72.34,0,0,1,1374.37-2444.74Zm0-109.46a37.25,37.25,0,0,0-37.22,37.21,37.26,37.26,0,0,0,37.22,37.22,37.26,37.26,0,0,0,37.21-37.22A37.25,37.25,0,0,0,1374.37-2554.2Z" transform="translate(-1087.62 2802.88)"/><path class="cls-2" d="M1267.12-2802.88a104.77,104.77,0,0,0-85.49,44.23c5.8,5.68,11.54,11.41,17.28,17.14q5.13,5.13,10.24,10.29a66.83,66.83,0,0,1,58-33.66,66.92,66.92,0,0,1,61.53,40.79c2,2,5.45,4.71,6.18,5.42,6.07,5.93,12.07,11.93,18.08,17.93s12,12,17.89,18a105.08,105.08,0,0,0,1.13-15.36A104.93,104.93,0,0,0,1267.12-2802.88Z" transform="translate(-1087.62 2802.88)"/><path class="cls-4" d="M1357.89-2696.47q-15.48-15.47-30.83-31.07a66.44,66.44,0,0,1,6.87,29.48,66.91,66.91,0,0,1-58,66.21c-1.48,1.7-2.92,3.46-3.41,4-5.93,6.07-11.93,12.08-17.92,18.08q-6.69,6.69-13.42,13.33a104.76,104.76,0,0,0,25.89,3.23,105,105,0,0,0,103.79-90.23Q1364.4-2690,1357.89-2696.47Z" transform="translate(-1087.62 2802.88)"/><path class="cls-3" d="M1200.3-2698.06a66.44,66.44,0,0,1,9.22-33.83c-2-2-4-3.93-5.92-5.91q-10.75-10.74-21.45-21.55a104.19,104.19,0,0,0-19.85,61.29,105,105,0,0,0,79.4,101.69l11.49-11.52q12.12-12.12,24.32-24.17a67.23,67.23,0,0,1-10.39.81A66.89,66.89,0,0,1,1200.3-2698.06Z" transform="translate(-1087.62 2802.88)"/></svg>